<svg width="186" height="133" viewBox="0 0 186 133" fill="none" xmlns="http://www.w3.org/2000/svg">
<path d="M77.459 76.9228C77.4277 76.735 80.4959 77.7682 85.6619 76.3749C91.2662 75.2322 95.6651 67.2797 94.6632 58.2158C93.8649 49.2457 89.3094 38.6477 79.8541 31.9162C71.025 25.1379 55.5427 23.1967 47.0737 33.1529C39.1055 43.3753 43.8645 58.3723 52.2553 66.3248C60.6304 74.9191 72.0425 79.0362 82.0457 79.5684C102.741 80.7895 115.719 69.9409 118.959 67.5145C126.332 61.8789 132.062 53.4411 132.891 53.582C133.502 53.4568 130.762 59.3585 120.055 68.2659C117.581 70.0349 105.105 81.0713 84.1747 80.7112C74.0306 80.4764 62.2898 76.8133 53.2415 68.4538C44.3028 60.6265 38.3228 45.8174 45.4612 34.2488C53.3981 22.9775 69.7413 24.0734 78.9775 30.8987C88.965 37.4423 93.8492 48.3534 94.7415 57.5113C95.9782 66.7631 91.6576 75.1382 85.8811 76.3593C80.5742 77.7995 77.4433 76.735 77.459 76.9072V76.9228Z" fill="#B74CE3"/>
<path d="M75.737 78.8954C75.737 78.6606 79.181 80.68 85.6306 79.8973C92.7377 79.3024 98.1542 69.4244 97.4497 58.5602C96.9644 47.6334 90.6087 34.922 78.9148 27.2983C67.8471 19.4241 49.1087 18.2813 39.2308 30.617C29.7755 43.1093 34.8005 61.1745 44.5376 71.3499C54.353 82.1046 68.0663 87.5523 80.1985 88.3663C105.371 89.9788 120.884 76.2185 124.532 72.978C133.189 65.7769 139.404 55.0223 140.296 55.0693C140.891 54.7719 138.104 62.1921 125.706 73.6198C122.888 75.8584 108.189 90.1197 82.7658 89.4778C70.4927 89.1647 56.3411 84.2962 45.8056 73.792C35.2858 63.9297 29.024 45.9271 37.4148 32.0729C46.5414 18.3909 66.1721 18.3282 77.7877 26.1398C90.0608 33.5287 96.9018 46.5533 97.5437 57.7305C98.5455 68.8609 93.0665 79.0832 85.8498 79.8816C79.2436 80.7896 75.7057 78.6449 75.7213 78.8954H75.737Z" fill="#E628C2"/>
<path d="M73.8271 80.5548C73.8898 80.1165 77.3651 83.9049 85.2549 83.8579C93.677 83.4352 100.925 71.8509 100.08 58.6855C99.6101 45.5045 91.3602 30.1787 76.6606 21.9758C62.6655 13.1467 40.1074 14.3834 29.4467 29.9752C19.3339 45.6923 25.4079 67.0137 37.18 79.3338C48.9522 92.3426 65.4833 98.9332 80.1046 99.9038C110.537 101.735 128.806 84.2336 133.001 80.2417C143.004 71.0682 149.939 57.7932 150.863 57.6993C151.411 57.2297 148.546 66.3249 134.269 80.7583C131.107 83.6544 113.871 101.516 83.2198 101.093C68.4264 100.89 51.4413 94.8317 38.7455 82.2612C26.2062 70.1916 18.6921 49.0737 27.5056 31.932C37.0078 14.7434 60.5991 12.1761 75.1734 20.7547C90.5931 28.6289 99.3596 44.2051 100.189 57.668C101.332 71.1152 94.1623 83.2474 85.5367 83.8736C77.4277 84.0614 73.8898 80.0695 73.8115 80.5548H73.8271Z" fill="#A55D82"/>
<path d="M71.7921 81.8698C71.9799 81.181 75.1421 87.0515 84.6444 87.7089C94.7572 87.8185 103.837 73.7452 102.553 58.0281C101.723 42.264 90.8905 24.1205 72.4026 15.8393C54.6661 6.61878 27.9596 11.9256 17.4241 31.8068C7.5931 51.8759 15.7178 76.3908 30.3547 90.9181C44.882 106.087 64.7945 113.774 82.3902 114.462C100.142 115.198 115.39 109.985 125.722 103.99C136.195 97.9939 142.253 91.7008 145.086 89.0083C156.624 77.5335 164.576 61.4564 165.515 61.2372C166.032 60.611 162.87 71.5222 146.448 89.4153C142.723 92.8749 122.873 115.183 86.1629 115.527C68.489 115.574 47.9973 108.905 32.4994 94.1899C17.0484 80.1635 6.91996 55.7582 15.6552 34.5307C24.4373 13.0841 52.0205 5.8204 70.4771 14.6182C89.7165 22.3828 101.426 40.6516 102.663 56.807C104.291 72.8685 95.3834 87.5367 85.0045 87.7246C75.1891 87.2863 71.9956 81.1184 71.7921 81.8542V81.8698Z" fill="#BAE654"/>
<path d="M69.71 82.8247C69.9762 82.042 72.794 89.744 84.0965 91.372C96.1348 92.2174 107.359 74.8722 104.933 56.2904C103.07 37.5833 88.5893 16.5906 65.5459 9.09213C54.2904 5.22547 41.1719 5.11589 29.4624 9.87485C17.6902 14.4616 8.01576 24.5587 3.66382 36.7066C-5.18095 61.7538 6.45032 89.744 24.453 106.479C42.5808 123.886 66.767 131.729 87.7283 131.886C109.003 132.215 126.771 124.841 138.95 117.468C151.098 109.766 158.252 102.221 161.461 98.8235C174.892 84.8441 184.379 65.683 185.397 65.3699C185.913 64.5872 182 77.4395 162.932 99.121C160.412 101.641 154.009 108.874 142.394 116.591C130.95 124.34 113.496 131.933 92.2681 132.935C71.2129 133.764 46.5884 126.72 27.349 110.079C8.12534 94.1585 -5.1653 66.3562 1.94183 40.1976C5.38581 27.4079 14.5437 16.3088 26.2689 10.8141C37.9158 5.06893 51.41 4.53667 63.0882 7.94935C86.9299 14.6964 102.616 35.6891 104.933 54.8501C107.907 73.8547 96.8549 91.8573 84.5035 91.4033C72.8566 90.0101 69.9605 81.9793 69.6944 82.809L69.71 82.8247Z" fill="#A55D82"/>
<path fill-rule="evenodd" clip-rule="evenodd" d="M75.69 35.8143C75.784 34.922 76.0501 33.8262 75.4083 32.4956C74.9073 31.478 74.2968 30.5387 73.9054 29.7247C73.3888 28.6602 73.1697 27.4235 73.4514 26.2964C73.9211 24.5118 75.2674 22.9463 76.1284 22.1166C76.2692 22.0071 76.3632 22.0384 76.4258 22.1949C75.7527 23.0089 74.5003 24.3396 74.1402 25.9989C73.9367 26.9226 74.0463 28.0027 74.469 28.8794C74.9386 29.8969 75.8935 30.8831 76.8954 31.2119L79.4314 21.4278C79.635 20.6451 80.3081 20.0659 81.1378 19.7215C81.9518 19.3771 82.9224 19.2988 83.7208 19.5023C84.2217 19.6276 84.6444 19.9094 84.9105 20.2538C85.1923 20.5982 85.2862 21.0365 85.161 21.4748C84.9731 22.1793 84.3 22.7585 83.486 23.1029C82.6719 23.4629 81.717 23.5882 80.9969 23.4003C80.3707 23.2438 79.8385 23.0246 79.588 22.6489C78.4452 27.0634 77.3024 31.4937 76.1597 35.9239C75.9718 36.0178 75.8309 35.9552 75.7213 35.8143H75.69Z" fill="#E628C2"/>
<path fill-rule="evenodd" clip-rule="evenodd" d="M39.3247 18.7353C38.4794 18.0935 37.5245 17.1542 35.7868 16.982C34.4718 16.8568 33.1412 16.8881 32.0924 16.7785C30.7148 16.6376 29.3215 16.1054 28.3509 15.1348C26.8011 13.5693 26.0184 11.2681 25.6897 9.89053C25.6584 9.68702 25.7523 9.5931 25.9402 9.64006C26.3785 10.8141 26.989 12.8805 28.4449 14.2425C29.2589 15.0095 30.4173 15.5731 31.5601 15.6827C32.8594 15.8549 34.4249 15.4792 35.3485 14.7121L26.9264 6.18042C26.2532 5.50728 26.0497 4.47409 26.2063 3.44089C26.3315 2.42335 26.8325 1.40581 27.5056 0.732667C27.9283 0.309996 28.4605 0.0595243 28.9615 0.0125609C29.4781 -0.0500569 29.9633 0.122142 30.3547 0.513504C30.9652 1.12403 31.1531 2.17288 31.0122 3.19042C30.9026 4.22361 30.4643 5.24115 29.8538 5.85168C29.3215 6.38393 28.8049 6.77529 28.2727 6.79095C32.0924 10.6419 35.8964 14.5086 39.7161 18.3596C39.7161 18.6101 39.5595 18.704 39.3404 18.7197L39.3247 18.7353Z" fill="#A55D82"/>
<path fill-rule="evenodd" clip-rule="evenodd" d="M76.7859 88.1317C77.052 90.0102 77.0989 92.3897 79.1184 94.7379C80.6838 96.5382 82.4371 98.1506 83.6425 99.6064C85.2393 101.516 86.3664 103.911 86.3664 106.354C86.3664 110.251 84.4252 114.149 83.0946 116.278C82.8598 116.576 82.6406 116.576 82.4684 116.278C83.4077 114.259 85.2706 110.893 85.114 107.324C85.0358 105.336 84.253 103.207 82.9381 101.626C81.4509 99.7943 78.9618 98.2915 76.7702 98.1506V119.409C76.7702 121.1 75.7214 122.65 74.1872 123.761C72.7 124.888 70.7589 125.562 69.0369 125.562C67.9411 125.562 66.9392 125.217 66.2347 124.654C65.499 124.09 65.0607 123.26 65.0607 122.29C65.0607 120.756 66.1565 119.221 67.628 118.094C69.1152 116.936 70.978 116.185 72.5435 116.185C73.9054 116.185 75.1108 116.325 75.7996 116.967V88.1161C76.144 87.8186 76.4571 87.8812 76.7545 88.1161L76.7859 88.1317Z" fill="#B74CE3"/>
<path fill-rule="evenodd" clip-rule="evenodd" d="M95.1329 73.2755C97.7942 73.9486 100.455 74.6061 103.117 75.2792C102.819 75.561 102.725 75.8271 102.663 76.1089C102.459 77.0482 102.913 78.3945 103.837 78.6606C104.228 78.7702 104.604 78.7858 104.901 78.4884C105.089 78.3005 105.199 78.0344 105.261 77.7683C105.496 76.8603 104.995 75.4671 104.087 75.2166L95.1955 72.978C95.1016 73.0563 95.0859 73.1659 95.1172 73.2755H95.1329ZM103.571 77.4709C103.398 77.0638 103.038 76.0776 103.242 75.6236C103.289 75.514 103.383 75.4201 103.492 75.4514C103.821 75.4984 104.212 76.0933 104.447 76.6881C104.682 77.2674 104.776 77.9248 104.682 78.2379C104.604 78.4101 104.541 78.4884 104.4 78.4414C104.087 78.3945 103.79 77.9718 103.571 77.4709Z" fill="#BAE654"/>
<path fill-rule="evenodd" clip-rule="evenodd" d="M66.8922 21.8974C67.0644 18.3125 67.2366 14.7277 67.4088 11.1428C67.8471 11.4402 68.2229 11.5028 68.5986 11.5028C69.8666 11.5185 71.4633 10.5949 71.5729 9.34253C71.6042 8.82593 71.5259 8.34065 71.072 8.0119C70.7902 7.80839 70.4145 7.74577 70.0544 7.73012C68.8334 7.6675 67.174 8.65373 67.0801 9.89044L66.5165 21.8661C66.6417 21.9757 66.7826 21.96 66.9079 21.8818L66.8922 21.8974ZM70.0857 10C69.6161 10.3288 68.4264 11.0332 67.8002 10.8923C67.6593 10.8767 67.5184 10.7671 67.5027 10.6105C67.4714 10.1722 68.1446 9.51473 68.849 9.06075C69.5378 8.59112 70.3519 8.30934 70.7745 8.3563C71.025 8.41892 71.1189 8.46588 71.1189 8.66939C71.1189 9.07641 70.6806 9.57735 70.1014 9.98436L70.0857 10Z" fill="#A55D82"/>
<path fill-rule="evenodd" clip-rule="evenodd" d="M46.0405 45.5203C39.3874 43.72 32.7342 41.9354 26.081 40.1351C26.8325 39.4307 27.0829 38.7575 27.2551 38.0687C27.803 35.7049 26.7385 32.3079 24.4373 31.5878C23.4668 31.306 22.5275 31.2434 21.7448 31.9791C21.2595 32.4331 20.9777 33.0906 20.8055 33.7794C20.195 36.0493 21.3534 39.5872 23.6233 40.2447L45.8526 46.2404C46.1031 46.0525 46.1344 45.7864 46.0562 45.5046L46.0405 45.5203ZM25.0322 34.6248C25.4549 35.6579 26.3002 38.1627 25.768 39.2898C25.6584 39.5559 25.4236 39.7751 25.1261 39.7281C24.2808 39.5872 23.3415 38.0687 22.778 36.5816C22.1987 35.11 21.9952 33.4663 22.2457 32.6836C22.4492 32.2453 22.6058 32.0731 22.9658 32.167C23.7485 32.3079 24.4843 33.3724 25.0165 34.6248H25.0322Z" fill="#E628C2"/>
<path fill-rule="evenodd" clip-rule="evenodd" d="M88.5893 42.8745L87.4622 44.2678C86.0063 44.0799 84.4879 44.4243 83.3451 45.3166C82.4371 46.0367 81.3257 47.9935 81.7327 48.2283C82.6719 48.7919 84.4565 47.9309 85.1923 47.336C85.8028 46.8351 86.3194 46.2715 86.7891 45.6297C88.6206 45.8332 90.8592 46.2089 92.3307 44.8C93.7553 43.4381 93.9901 41.3091 92.8004 39.8532C92.5969 39.6027 92.3464 39.3679 92.0646 39.1487L93.1291 37.8181C93.2857 37.599 93.4892 37.4111 93.6614 37.2702C94.3345 36.7693 95.1016 36.7536 95.8217 37.4737C96.0408 37.6929 96.3383 38.2721 96.0878 38.5226C95.9469 38.2251 95.2268 37.7555 94.6163 38.2878C94.178 38.6635 94.131 39.3836 94.538 39.7906C94.992 40.2289 95.7747 40.1663 96.213 39.728C96.8862 39.0548 96.6983 37.8807 96.0565 37.2546C95.2425 36.4405 94.2719 36.3309 93.4422 37.0041C93.3326 37.098 93.2074 37.1919 93.0822 37.3328L91.7202 39.0079C90.7027 38.5069 89.6225 38.4913 88.7615 39.1957C87.7127 40.0411 87.3996 41.5282 88.2762 42.5927C88.3702 42.7023 88.4641 42.7962 88.5737 42.9058L88.5893 42.8745ZM89.6069 42.1701L91.8455 39.4305C92.049 39.5714 92.2368 39.728 92.409 39.9158C93.4422 41.0742 93.5674 42.8275 92.2994 43.8451C91.0471 44.847 89.3407 44.6122 87.8536 44.3304L88.8711 43.078C89.5912 43.5163 90.7027 43.5163 91.3602 42.9841C92.049 42.4362 92.2838 41.4969 91.9707 40.6985C91.9394 40.6359 91.8455 40.6046 91.7985 40.6516C91.7672 40.6829 91.7515 40.7142 91.7672 40.7768C91.9081 41.2778 91.8611 41.7944 91.4384 42.1544C90.9375 42.5771 90.1548 42.5458 89.6225 42.1857L89.6069 42.1701ZM82.9381 46.2089C83.8304 45.4262 85.2706 45.3479 86.382 45.5671C86.1159 45.9115 85.8185 46.2559 85.4741 46.5377C84.8792 46.9916 83.5173 47.6804 82.7972 47.0856C82.5624 46.7881 82.6876 46.4281 82.9381 46.2089ZM89.3564 41.9196C88.7459 41.1838 88.8085 40.1663 89.5129 39.5088C90.0765 39.0079 90.8749 38.9296 91.548 39.227L89.3564 41.9352V41.9196Z" fill="#E628C2"/>
<path fill-rule="evenodd" clip-rule="evenodd" d="M13.9019 86.7852L15.5456 84.985C17.518 85.3607 19.6157 85.0163 21.2438 83.8735C22.5431 82.9812 24.2025 80.3982 23.6702 80.0382C22.4492 79.1928 19.9288 80.226 18.88 80.9774C18.0033 81.6036 17.2676 82.3394 16.5631 83.1691C14.0897 82.7464 11.0527 82.0576 8.93938 83.8579C6.87299 85.5955 6.40336 88.4916 7.89054 90.558C8.15666 90.918 8.46975 91.2624 8.84546 91.5599L7.29567 93.2975C7.06085 93.5793 6.77907 93.8141 6.5286 94.002C5.57367 94.6438 4.52482 94.5812 3.60121 93.548C3.31943 93.2349 2.95938 92.4209 3.33508 92.1078C3.50728 92.5148 4.44655 93.2192 5.30755 92.5461C5.91807 92.0608 6.05896 91.1059 5.52671 90.511C4.9475 89.8692 3.86734 89.9005 3.2255 90.464C2.27058 91.325 2.42713 92.9375 3.25681 93.8611C4.30566 95.0508 5.62064 95.27 6.79472 94.4246C6.95127 94.2994 7.12347 94.1898 7.29567 94.002L9.29944 91.8416C10.6457 92.6087 12.1172 92.7183 13.3539 91.826C14.8568 90.7615 15.4047 88.7577 14.2932 87.2392C14.1836 87.0827 14.0584 86.9418 13.9175 86.8009L13.9019 86.7852ZM12.446 87.6619L9.1742 91.2155C8.90808 91.012 8.67326 90.7771 8.4541 90.511C7.15478 88.836 7.10781 86.4565 8.90808 85.1572C10.7083 83.8735 13.0095 84.3588 15.0133 84.8441L13.5261 86.4565C12.5869 85.799 11.0684 85.7051 10.1135 86.3939C9.14289 87.0827 8.75153 88.3507 9.11159 89.4778C9.15855 89.5717 9.28378 89.6031 9.3464 89.5561C9.39336 89.5248 9.42467 89.4622 9.40902 89.3839C9.26813 88.6794 9.36206 87.975 9.97258 87.5367C10.677 87.0044 11.7572 87.0983 12.446 87.6306V87.6619ZM21.8543 82.6838C20.5863 83.67 18.5982 83.67 17.111 83.2786C17.5024 82.8247 17.9407 82.3707 18.426 82.0263C19.2713 81.4471 21.1968 80.6174 22.1205 81.4784C22.4179 81.9011 22.2144 82.3863 21.8543 82.6681V82.6838ZM12.7591 88.022C13.5418 89.0865 13.3539 90.464 12.3521 91.3094C11.5537 91.9512 10.4422 91.9982 9.54991 91.5286L12.7591 88.022Z" fill="#E628C2"/>
<path fill-rule="evenodd" clip-rule="evenodd" d="M125.784 81.6505L121.182 76.2653C122.951 70.7393 122.716 64.5714 120.024 59.4681C117.895 55.4136 111.054 49.6997 109.832 51.1242C106.952 54.3491 109.034 61.9415 110.85 65.2289C112.353 67.9841 114.184 70.3636 116.329 72.6648C114.231 79.6467 111.179 88.1158 115.609 94.8785C119.867 101.422 128.039 103.833 134.52 100.295C135.647 99.6688 136.743 98.886 137.776 97.8998L142.222 102.987C142.942 103.77 143.521 104.663 143.975 105.461C145.462 108.451 144.93 111.425 141.642 113.742C140.656 114.431 138.167 115.167 137.384 114.008C138.621 113.664 140.969 111.19 139.341 108.467C138.183 106.51 135.443 105.805 133.565 107.105C131.514 108.561 131.201 111.644 132.61 113.695C134.723 116.763 139.435 116.873 142.378 114.838C146.151 112.255 147.262 108.545 145.243 104.866C144.961 104.365 144.664 103.817 144.225 103.254L138.699 96.7414C141.376 93.1252 142.222 88.9454 140.093 85.0631C137.588 80.3668 131.968 78.0812 127.209 80.7425C126.724 81.0086 126.254 81.3061 125.8 81.6505H125.784ZM127.804 86.1433L136.883 96.8353C136.195 97.5397 135.443 98.1346 134.598 98.6512C129.322 101.813 122.45 101.062 119.366 95.4107C116.345 89.7751 118.536 83.3098 120.665 77.7368L124.782 82.5897C122.56 85.0631 121.761 89.4151 123.389 92.3894C125.017 95.442 128.508 97.0075 131.89 96.3813C132.171 96.2717 132.344 95.943 132.218 95.7238C132.14 95.5829 131.984 95.4734 131.764 95.5047C129.698 95.6456 127.694 95.1446 126.645 93.2191C125.377 90.9962 126.035 87.9122 127.804 86.1433ZM116.814 57.2765C119.194 61.284 118.505 66.9822 116.846 71.1307C115.656 69.847 114.544 68.4381 113.715 66.9196C112.368 64.274 110.647 58.4505 113.48 56.1024C114.795 55.3823 116.141 56.1493 116.814 57.2765ZM128.931 85.3449C132.265 83.4664 136.148 84.4996 138.23 87.6774C139.779 90.2135 139.513 93.4226 137.885 95.8178L128.931 85.3449Z" fill="#A55D82"/>
<path fill-rule="evenodd" clip-rule="evenodd" d="M104.353 47.1951C104.933 47.0229 105.559 47.2421 106.075 47.6178C106.608 48.0248 107.03 48.604 107.203 49.1832C107.312 49.5589 107.296 49.919 107.171 50.2164C107.062 50.5295 106.827 50.733 106.498 50.8269C105.981 50.9835 105.34 50.7956 104.823 50.4043C104.291 50.0286 103.837 49.465 103.68 48.9328C103.539 48.4788 103.492 48.1031 103.649 47.8056C100.408 48.7606 97.168 49.7311 93.9275 50.6861C93.771 50.6078 93.7397 50.4825 93.8179 50.326L104.369 47.2108L104.353 47.1951Z" fill="#E628C2"/>
<path fill-rule="evenodd" clip-rule="evenodd" d="M45.2891 88.0377C44.068 89.1179 42.2991 89.3371 40.5928 88.977C38.8395 88.6169 37.1331 87.6777 36.053 86.4723C35.3329 85.6739 34.9885 84.7816 34.9571 83.9363C34.8945 83.0596 35.2076 82.2925 35.8808 81.682C36.9609 80.7114 38.7299 80.461 40.4519 80.7897C42.1739 81.0715 43.9428 81.9325 44.9447 83.0753C45.8057 84.0302 46.338 84.8755 46.3223 85.7835C53.1163 79.7252 59.8947 73.6669 66.6888 67.6086C67.1584 67.64 67.3776 67.8748 67.3462 68.3444L45.2734 88.0377H45.2891Z" fill="#A55D82"/>
<path fill-rule="evenodd" clip-rule="evenodd" d="M91.6107 61.3937L96.9332 61.519C96.6984 61.7694 96.6357 62.1765 96.6201 62.6617C96.6201 63.241 96.8549 63.9141 97.2619 64.4307C97.6533 64.963 98.1855 65.37 98.7491 65.3856C99.0935 65.3856 99.3909 65.2447 99.5944 64.9943C99.798 64.7438 99.9232 64.3994 99.9388 63.9924C99.9388 63.3818 99.7353 62.6931 99.344 62.1295C98.9683 61.5816 98.4204 61.1902 97.8098 61.1746L86.6169 60.9084V61.2528C86.7578 61.2842 87.4309 61.3781 87.9319 62.0043C88.4954 62.7087 88.9337 63.2723 89.4503 63.7106C90.3896 64.5403 91.6107 64.8221 92.4873 64.8377C92.8787 64.8377 93.1605 64.7908 93.4266 64.7125C93.8336 64.9316 94.2719 65.0412 94.7729 65.0569C95.7121 65.0725 96.5105 64.8221 97.0428 64.4933C97.0428 64.3837 97.0115 64.3211 96.9019 64.3055C96.7297 64.462 95.6965 64.8064 95.0546 64.7594C94.3502 64.7125 93.9275 64.6499 93.3796 64.1646C92.7534 63.601 92.1273 62.1921 91.6107 61.3937ZM93.1918 64.6029C93.0196 64.6029 92.7691 64.6029 92.5656 64.5872C92.2212 64.5716 91.6107 64.4307 91.2036 64.2272C89.9043 63.5697 89.3877 62.6148 88.7459 61.3468C89.7165 61.3937 90.6714 62.0669 91.188 62.6931C91.7516 63.3975 92.049 63.7263 92.5186 64.1489C92.7221 64.3368 92.9569 64.4933 93.2074 64.6342L93.1918 64.6029Z" fill="#A55D82"/>
<path fill-rule="evenodd" clip-rule="evenodd" d="M51.4256 27.7993L49.2653 20.9583C49.688 21.1461 50.2359 21.0522 50.862 20.8487C51.5978 20.6139 52.3492 20.0034 52.8502 19.2519C53.3668 18.5162 53.6485 17.6552 53.4294 16.9507C53.2885 16.4968 52.9754 16.1837 52.5527 16.0428C52.1457 15.8862 51.6604 15.8706 51.1282 16.0428C50.3454 16.2933 49.5627 16.8725 49.0305 17.6082C48.5139 18.3283 48.2477 19.1893 48.4982 19.9877L53.038 34.3585L53.4763 34.2176C53.445 34.0141 53.2885 33.1062 53.8364 32.1982C54.4782 31.1807 55.0105 30.3666 55.3549 29.5213C55.9967 27.9558 55.8245 26.2808 55.4801 25.1693C55.3236 24.6684 55.1357 24.324 54.9009 24.0266C54.9948 23.416 54.9479 22.8055 54.7443 22.1637C54.3686 20.9583 53.6798 20.0503 53.038 19.5181C52.8971 19.5494 52.8189 19.6277 52.8502 19.7842C53.1319 19.9407 54.0086 21.1148 54.2278 21.9445C54.4782 22.8681 54.5722 23.4317 54.1964 24.3397C53.7581 25.3885 52.224 26.8131 51.4413 27.7993H51.4256ZM54.8226 24.371C54.9009 24.5901 55.0105 24.9189 55.0731 25.185C55.1983 25.639 55.2766 26.4687 55.1983 27.0792C54.9165 29.0203 53.9303 30.0848 52.5997 31.4781C52.2396 30.2257 52.678 28.7072 53.2415 27.7836C53.8834 26.7661 54.1964 26.2338 54.5095 25.4511C54.6504 25.1067 54.76 24.731 54.8226 24.371Z" fill="#BAE654"/>
<path fill-rule="evenodd" clip-rule="evenodd" d="M21.009 63.9768L10.2387 66.1058C10.5988 65.511 10.5361 64.65 10.3483 63.6637C10.1135 62.5053 9.3151 61.253 8.26625 60.3763C7.23305 59.4683 5.96504 58.8891 4.85357 59.1083C4.14912 59.2492 3.61687 59.6719 3.31943 60.298C3.00635 60.8929 2.91242 61.6443 3.06896 62.4583C3.31943 63.6951 4.07085 64.9787 5.10404 65.9336C6.09028 66.8573 7.3896 67.4052 8.6263 67.1547L31.2783 62.6775L31.1374 61.9887C30.8243 61.9887 29.4154 62.0983 28.1161 61.0808C26.6759 59.9223 25.5331 58.9831 24.2964 58.3099C22.0265 57.0576 19.4435 57.0419 17.6902 57.3863C16.9075 57.5428 16.3596 57.762 15.8587 58.0751C14.9351 57.8246 13.9958 57.7933 12.9939 57.9968C11.0997 58.3725 9.59688 59.2492 8.67326 60.1415C8.68892 60.3607 8.7985 60.4859 9.04897 60.4702C9.33075 60.0632 11.2719 58.9204 12.5712 58.7326C14.0271 58.4978 14.8881 58.4508 16.2187 59.1866C17.7372 60.0319 19.647 62.5992 21.009 63.9768ZM16.3753 58.2316C16.7197 58.1377 17.2363 58.0438 17.6433 57.9968C18.3477 57.8872 19.6314 57.9029 20.5394 58.1221C23.4511 58.8735 24.907 60.5642 26.8011 62.8341C24.8443 63.1628 22.5901 62.2392 21.2908 61.2373C19.8506 60.0789 19.0991 59.531 17.9564 58.9048C17.4554 58.623 16.9075 58.3882 16.3596 58.2316H16.3753Z" fill="#B74CE3"/>
</svg>
